<svg width="189" height="83" viewBox="0 0 189 83" fill="none" xmlns="http://www.w3.org/2000/svg">
<path d="M36.5098 0.0101038C36.7469 -0.0206304 36.9885 0.0191809 37.1991 0.123676C37.4098 0.228171 37.5784 0.39185 37.6802 0.590713L43.1174 11.6325H51.5561C51.7841 11.6443 52.0028 11.7197 52.1828 11.8487C52.3627 11.9777 52.4954 12.154 52.563 12.3542C52.6307 12.5543 52.63 12.7687 52.5611 12.9684C52.4923 13.1682 52.3585 13.3439 52.1777 13.472L46.2701 18.0397L49.6859 24.971H60.0116C60.2523 24.9884 60.4803 25.0767 60.6619 25.2227C60.8434 25.3686 60.9687 25.5645 61.019 25.7811C61.0694 25.9977 61.0421 26.2234 60.9413 26.4247C60.8405 26.6259 60.6716 26.7919 60.4596 26.8978L52.6201 30.8953L56.2879 38.361H67.0056C67.2488 38.3798 67.4786 38.4709 67.6601 38.6206C67.8416 38.7703 67.9649 38.9702 68.0112 39.1901C68.0574 39.4099 68.0242 39.6376 67.9165 39.8386C67.8088 40.0395 67.6325 40.2026 67.4144 40.3031L59.0709 44.0026L69.3127 64.8068C69.4269 65.0526 69.4324 65.3295 69.3279 65.5789C69.2233 65.8283 69.017 66.0305 68.7527 66.1427C68.2314 66.1908 67.7061 66.1908 67.1848 66.1427L36.8626 53.8112C36.7277 53.8445 36.5873 53.8549 36.4482 53.8421L6.03084 66.1221C5.82245 66.2034 5.59209 66.2249 5.37016 66.1836C5.14824 66.1423 4.94516 66.0403 4.78772 65.891C4.67493 65.8818 4.56488 65.8539 4.46294 65.8087C4.20001 65.6966 3.99474 65.4952 3.89031 65.247C3.78587 64.9988 3.79041 64.7232 3.90297 64.478L14.0552 43.8587L5.99724 40.2621C5.79387 40.1507 5.63419 39.9831 5.54113 39.7833C5.44807 39.5835 5.42644 39.3618 5.47932 39.15C5.5322 38.9382 5.65689 38.7473 5.83547 38.6046C6.01405 38.4619 6.23732 38.3748 6.47322 38.3558H16.771L20.4836 30.8028L12.8176 26.8516C12.5679 26.7171 12.3847 26.4991 12.3064 26.2433C12.2281 25.9875 12.2608 25.7138 12.3977 25.4797C12.4949 25.3251 12.6343 25.1965 12.8022 25.1064C12.9701 25.0163 13.1607 24.9679 13.3552 24.9659H23.3506L26.7664 18.0346L20.7692 13.4103C20.5984 13.278 20.476 13.1009 20.4185 12.9028C20.3609 12.7047 20.371 12.4952 20.4473 12.3025C20.5236 12.1098 20.6625 11.9433 20.8452 11.8253C21.0279 11.7073 21.2457 11.6436 21.4691 11.6428H29.9134L35.3451 0.600999C35.4469 0.402137 35.6155 0.238441 35.8261 0.133946C36.0368 0.0294515 36.2783 -0.0103441 36.5154 0.02039L36.5098 0.0101038ZM9.81622 77.8627L12.6552 78.69C12.3457 79.9629 11.5809 81.1042 10.4826 81.9321C9.1698 82.7348 7.59525 83.097 6.02505 82.9575C4.45485 82.818 2.98528 82.1854 1.86469 81.1665C0.621564 79.9539 0 78.3012 0 76.2083C0 73.9886 0.625291 72.2639 1.87588 71.0342C2.50592 70.4219 3.27189 69.9407 4.12201 69.6234C4.97214 69.306 5.8866 69.1599 6.80359 69.1948C8.39731 69.1344 9.95266 69.6532 11.1321 70.6386C11.8624 71.318 12.3773 72.167 12.6216 73.0946L9.70982 73.7317C9.57739 73.0859 9.19813 72.5047 8.64028 72.0927C8.07348 71.6877 7.37044 71.4769 6.6524 71.4966C6.15665 71.4843 5.66406 71.5727 5.20999 71.7557C4.75592 71.9388 4.35164 72.2117 4.02616 72.5551C3.3598 73.2693 3.02382 74.4151 3.02382 76.0079C3.02382 77.688 3.3542 78.8904 4.01496 79.6046C4.32631 79.9523 4.72039 80.2299 5.16693 80.4161C5.61346 80.6022 6.10057 80.692 6.59081 80.6784C7.33278 80.6927 8.05309 80.4485 8.60669 79.995C9.23958 79.4114 9.6618 78.6635 9.81622 77.8525V77.8627ZM20.8308 82.7593V69.4311H31.6045V71.6867H23.765V74.6411H31.0446V76.8865H23.765V80.514H31.8845V82.7593H20.8308ZM40.0376 82.7593V69.4311H42.8935L48.8291 78.3303V69.4311H51.5561V82.7593H48.6051L42.7535 74.0708V82.7593H40.0376ZM59.5637 78.4279L62.4195 78.171C62.5127 78.9087 62.8829 79.5937 63.4666 80.1081C64.068 80.5454 64.8226 80.7665 65.5889 80.7298C66.3508 80.7806 67.1079 80.5842 67.728 80.1749C67.9464 80.0252 68.1245 79.8315 68.2487 79.6089C68.373 79.3862 68.44 79.1405 68.4447 78.8904C68.4548 78.5957 68.345 78.3081 68.1368 78.0837C67.8507 77.8087 67.4889 77.6098 67.0896 77.5082C66.748 77.3952 65.9697 77.2051 64.7378 76.9225C63.5377 76.7244 62.4046 76.2723 61.4284 75.602C61.0032 75.2742 60.6623 74.8642 60.43 74.4014C60.1977 73.9387 60.0797 73.4345 60.0844 72.925C60.0839 72.2452 60.3063 71.581 60.7228 71.0188C61.1623 70.4104 61.7931 69.939 62.5315 69.6674C63.44 69.3391 64.4112 69.1818 65.3873 69.205C67.2184 69.205 68.5903 69.575 69.5143 70.3046C69.9703 70.6714 70.3355 71.1233 70.5857 71.6302C70.8358 72.1371 70.965 72.6872 70.9646 73.2436L68.0304 73.3617C67.9719 72.7924 67.682 72.2641 67.2184 71.882C66.6727 71.5461 66.0204 71.387 65.3649 71.4298C64.6579 71.3929 63.9563 71.562 63.3602 71.9128C63.2131 72.0036 63.0934 72.1271 63.0121 72.2717C62.9309 72.4163 62.8907 72.5774 62.8955 72.74C62.8952 72.8965 62.9339 73.0511 63.0087 73.1917C63.0834 73.3324 63.1921 73.4556 63.3266 73.5519C63.7 73.8362 64.5996 74.1325 66.0257 74.4407C67.1199 74.6445 68.1839 74.9671 69.1951 75.4016C69.8546 75.7121 70.41 76.1809 70.8022 76.758C71.199 77.4043 71.3928 78.1388 71.3622 78.8801C71.3652 79.6414 71.1237 80.3866 70.6678 81.0227C70.2007 81.6963 69.5125 82.2163 68.7023 82.5076C67.6961 82.8635 66.6219 83.0295 65.5441 82.9957C63.7074 82.9957 62.2963 82.6086 61.3108 81.8345C60.2683 80.9486 59.6368 79.729 59.5469 78.4279H59.5637ZM44.075 13.6466L45.3069 16.1386L48.5267 13.6466H44.075ZM27.6624 16.1386L28.8943 13.6466H24.4145L27.6624 16.1386ZM32.2877 11.6325H40.6872L36.5098 3.10838L32.2877 11.6325ZM44.5006 19.3859L37.2826 24.971H47.25L44.5006 19.3859ZM35.6923 24.971L28.4743 19.3911L25.7249 24.971H35.6923ZM41.6727 13.6672H31.2965L29.4095 17.5105L36.5098 22.962L43.5934 17.4848L41.6727 13.6672ZM50.6322 27.0263L51.6569 29.0815L55.7279 27.0263H50.6322ZM21.3459 29.0044L22.3147 27.0263H17.5046L21.3459 29.0044ZM50.6322 31.9075L37.8818 38.3969H53.8688L50.6322 31.9075ZM35.0763 38.3969L22.3539 31.8356L19.1509 38.361L35.0763 38.3969ZM48.2691 26.9903H24.7505L23.289 29.955L36.5098 36.7733L49.7642 30.0372L48.2691 26.9903ZM57.2286 40.3751L58.1134 42.1683L62.1619 40.3751H57.2286ZM14.9119 42.0501L15.7351 40.3751H11.1769L14.9119 42.0501ZM57.0382 44.8761L39.4329 52.686L66.2497 63.5788L57.0382 44.8761ZM33.7492 52.7322L15.9814 44.763L6.68601 63.661L33.7492 52.7322ZM54.8207 40.4008H18.1429L16.883 42.9698L36.3922 51.7046C36.4732 51.6882 36.5557 51.6796 36.6386 51.6789H36.7282L56.1367 43.0674L54.8207 40.4008Z" fill="#00612E"/>
<path fill-rule="evenodd" clip-rule="evenodd" d="M111.271 39.7226C111.271 41.6956 110.649 43.1703 109.395 44.1465C108.611 44.7631 107.48 45.0662 105.974 45.0662C105.151 45.1009 104.332 44.9404 103.596 44.6002C102.861 44.26 102.233 43.7516 101.774 43.124C100.936 42.036 100.486 40.7364 100.486 39.404C100.41 37.8952 100.905 36.4088 101.886 35.1959C102.352 34.6523 102.945 34.2116 103.622 33.9063C104.368 33.5759 105.184 33.4004 106.013 33.3924C106.875 33.3803 107.732 33.5108 108.544 33.7778C109.217 33.9718 109.822 34.3264 110.297 34.8054C110.417 34.9357 110.478 35.1026 110.47 35.273C110.471 35.3598 110.45 35.4457 110.41 35.524C110.369 35.6024 110.309 35.6712 110.235 35.7251C110.088 35.8354 109.904 35.897 109.714 35.8998C109.496 35.89 109.287 35.8182 109.115 35.6943C108.692 35.3734 108.227 35.1008 107.732 34.8825C107.219 34.6959 106.671 34.6034 106.119 34.6102C105.504 34.5877 104.893 34.7193 104.352 34.9908C103.812 35.2623 103.362 35.6636 103.051 36.1516C102.441 37.0478 102.124 38.0856 102.138 39.142C102.09 39.8453 102.197 40.5503 102.454 41.2144C102.711 41.8785 103.112 42.4879 103.633 43.0058C104.229 43.549 105.033 43.8554 105.873 43.8588C106.537 43.8752 107.195 43.7392 107.788 43.4631C109.098 42.8877 109.753 41.8087 109.753 40.2364V39.7226H107.514C107.42 39.7309 107.326 39.7205 107.238 39.6923C107.149 39.6641 107.069 39.6187 107.001 39.5592C106.933 39.4996 106.881 39.4274 106.846 39.3474C106.812 39.2674 106.797 39.1815 106.802 39.0957C106.836 38.6333 107.054 38.4021 107.446 38.4021H110.246C110.924 38.4021 111.26 38.7566 111.26 39.4605L111.271 39.7226ZM117.195 37.0251C117.195 37.4053 116.843 37.6828 116.137 37.8523C115.905 37.9003 115.678 37.9674 115.46 38.0527C115.051 38.2624 114.718 38.5754 114.498 38.9544C114.279 39.3335 114.183 39.7625 114.222 40.1901V44.3417C114.222 44.8299 113.976 45.0662 113.477 45.0662C112.979 45.0662 112.699 44.8145 112.699 44.3109V37.0559C112.699 36.5678 112.945 36.3263 113.449 36.3263C113.556 36.314 113.664 36.3246 113.766 36.3572C113.867 36.3899 113.959 36.4437 114.034 36.5144C114.109 36.5851 114.165 36.6709 114.197 36.7648C114.23 36.8588 114.238 36.9584 114.222 37.0559V37.7752H114.256C114.489 37.3875 114.794 37.0398 115.157 36.7476C115.474 36.4687 115.889 36.3044 116.328 36.2852C116.437 36.2801 116.546 36.2951 116.649 36.3296C116.752 36.364 116.847 36.417 116.927 36.4856C117.012 36.5464 117.08 36.6245 117.127 36.7136C117.173 36.8027 117.197 36.9005 117.195 36.9994V37.0251ZM125.595 41.7419C125.638 42.3086 125.51 42.8754 125.225 43.3795C124.939 43.8836 124.507 44.3055 123.977 44.5987C123.326 44.9314 122.588 45.0932 121.843 45.0662C120.253 45.0662 119.172 44.5164 118.601 43.4015C118.34 42.8814 118.208 42.3145 118.215 41.7419V37.0251C118.215 36.5113 118.461 36.3006 118.971 36.3006C119.076 36.2883 119.184 36.2987 119.285 36.3311C119.386 36.3635 119.477 36.4169 119.551 36.4872C119.626 36.5574 119.681 36.6426 119.714 36.7359C119.746 36.8293 119.754 36.9283 119.738 37.0251V41.7059C119.738 43.1343 120.449 43.8433 121.877 43.8433C123.305 43.8433 124.066 43.1343 124.066 41.7059V37.0251C124.066 36.5113 124.324 36.3006 124.822 36.3006C124.929 36.2874 125.037 36.2972 125.138 36.3292C125.24 36.3612 125.332 36.4145 125.407 36.4848C125.482 36.5552 125.538 36.6407 125.571 36.7345C125.603 36.8283 125.612 36.9278 125.595 37.0251V41.7419ZM135.674 40.6269C135.674 42.3738 135.047 43.6584 133.782 44.4805C133.176 44.8717 132.451 45.0768 131.71 45.0662C131.221 45.0785 130.736 44.9793 130.3 44.7776C129.863 44.5758 129.487 44.2778 129.207 43.9101H129.168V47.7021C129.168 48.2724 128.916 48.555 128.417 48.555C128.309 48.5564 128.202 48.5343 128.104 48.4906C128.007 48.4468 127.922 48.3826 127.857 48.3032C127.72 48.142 127.649 47.9422 127.656 47.738V37.0559C127.656 36.5421 127.896 36.3006 128.389 36.3006C128.496 36.2867 128.605 36.2959 128.708 36.3275C128.81 36.3591 128.903 36.4122 128.979 36.4825C129.055 36.5529 129.112 36.6386 129.146 36.7327C129.18 36.8269 129.189 36.927 129.173 37.0251V37.4567H129.212C129.436 37.0766 129.775 36.7647 130.189 36.5593C130.603 36.3539 131.073 36.264 131.542 36.3006C132.12 36.2862 132.694 36.3916 133.222 36.6089C133.736 36.824 134.193 37.1375 134.564 37.5283C134.935 37.9191 135.21 38.3782 135.372 38.8748C135.577 39.4396 135.679 40.0316 135.674 40.6269ZM134.151 40.6937C134.16 40.1706 134.075 39.6498 133.899 39.1522C133.743 38.7039 133.464 38.3003 133.087 37.9808C132.708 37.6718 132.217 37.5033 131.71 37.5081C131.149 37.475 130.596 37.6364 130.159 37.9602C129.754 38.267 129.453 38.6734 129.291 39.1317C129.118 39.6198 129.025 40.129 129.016 40.6423C128.967 41.4674 129.213 42.2845 129.716 42.9699C129.92 43.2416 130.193 43.4643 130.511 43.619C130.828 43.7738 131.182 43.856 131.542 43.8588C131.584 43.8407 131.63 43.8302 131.676 43.8279C132.173 43.8087 132.65 43.6464 133.04 43.3641C133.43 43.0819 133.713 42.694 133.849 42.2557C134.049 41.75 134.151 41.2162 134.151 40.6783V40.6937ZM145.138 40.6937C145.138 42.3995 144.499 43.6635 143.212 44.4805C142.728 44.7689 142.181 44.957 141.61 45.0313C141.039 45.1056 140.457 45.0645 139.905 44.9108C139.353 44.7571 138.844 44.4946 138.414 44.1416C137.984 43.7886 137.643 43.3536 137.416 42.8671C137.082 42.1837 136.912 41.4425 136.917 40.6937C136.917 38.9364 137.584 37.6622 138.917 36.8607C139.546 36.4808 140.286 36.2854 141.039 36.3006C141.811 36.2955 142.566 36.509 143.2 36.912C143.833 37.317 144.333 37.8732 144.645 38.5203C144.98 39.2031 145.148 39.9449 145.138 40.6937ZM143.604 40.6937C143.611 40.151 143.513 39.6115 143.312 39.1009C143.172 38.6487 142.876 38.2505 142.469 37.9658C142.061 37.6811 141.564 37.5253 141.051 37.5218C140.539 37.5184 140.04 37.6674 139.627 37.9465C139.215 38.2257 138.913 38.6199 138.765 39.07C138.552 39.5885 138.447 40.1394 138.457 40.6937C138.425 41.4351 138.619 42.1702 139.017 42.8157C139.21 43.1369 139.495 43.4029 139.842 43.5843C140.189 43.7657 140.584 43.8553 140.983 43.8433C141.504 43.8622 142.016 43.7171 142.435 43.4321C142.853 43.147 143.153 42.7392 143.284 42.2762C143.475 41.7668 143.575 41.2324 143.581 40.6937H143.604Z" fill="#6D6E71"/>
<path fill-rule="evenodd" clip-rule="evenodd" d="M166.982 36.1927C165.702 36.1917 164.471 36.6453 163.547 37.4585C162.623 38.2716 162.078 39.3813 162.026 40.5549V48.6372C162.026 48.8925 162.137 49.1374 162.333 49.3184C162.529 49.4994 162.795 49.6018 163.074 49.6032C163.213 49.6046 163.351 49.5802 163.48 49.5314C163.609 49.4827 163.726 49.4106 163.823 49.3194C163.921 49.2283 163.998 49.12 164.049 49.001C164.1 48.882 164.124 48.7547 164.121 48.6269V44.2338C164.933 44.79 165.908 45.1087 166.92 45.1484C167.575 45.171 168.228 45.0726 168.84 44.8589C169.452 44.6452 170.012 44.3207 170.484 43.9046C170.957 43.4885 171.334 42.9894 171.592 42.437C171.85 41.8846 171.984 41.2902 171.987 40.6891C171.99 40.0881 171.861 39.4927 171.607 38.9384C171.354 38.3841 170.982 37.8823 170.513 37.4627C170.043 37.0432 169.487 36.7146 168.877 36.4964C168.266 36.2782 167.614 36.1749 166.96 36.1927H166.982ZM167.01 43.5864C166.593 43.6027 166.176 43.5414 165.785 43.4061C165.394 43.2707 165.037 43.0643 164.736 42.799C164.434 42.5338 164.194 42.2154 164.03 41.8628C163.866 41.5103 163.782 41.1309 163.782 40.7476C163.782 40.3643 163.866 39.985 164.03 39.6324C164.194 39.2799 164.434 38.9614 164.736 38.6962C165.037 38.431 165.394 38.2245 165.785 38.0892C166.176 37.9539 166.593 37.8925 167.01 37.9088C167.427 37.8925 167.844 37.9539 168.235 38.0892C168.626 38.2245 168.983 38.431 169.284 38.6962C169.586 38.9614 169.826 39.2799 169.99 39.6324C170.154 39.985 170.238 40.3643 170.238 40.7476C170.238 41.1309 170.154 41.5103 169.99 41.8628C169.826 42.2154 169.586 42.5338 169.284 42.799C168.983 43.0643 168.626 43.2707 168.235 43.4061C167.844 43.5414 167.427 43.6027 167.01 43.5864Z" fill="#6D6E71"/>
<path fill-rule="evenodd" clip-rule="evenodd" d="M156.213 37.765C155.658 37.7679 155.115 37.9084 154.64 38.1716C154.164 38.4348 153.776 38.8109 153.514 39.2602C153.474 39.3132 153.451 39.3762 153.449 39.4411C153.447 39.5061 153.466 39.5701 153.504 39.625C153.542 39.68 153.596 39.7235 153.661 39.75C153.726 39.7765 153.797 39.7848 153.867 39.774H158.548C158.862 39.774 158.918 39.476 158.767 39.2242C158.529 38.7905 158.164 38.4262 157.713 38.1721C157.262 37.918 156.743 37.7842 156.213 37.7855V37.765ZM153.447 41.8755C153.676 42.3678 154.055 42.7889 154.539 43.0879C155.023 43.387 155.591 43.5512 156.174 43.5607C156.925 43.5715 157.661 43.3667 158.28 42.975C158.365 42.9041 158.465 42.8494 158.573 42.8139C158.681 42.7784 158.796 42.7628 158.911 42.7681C159.026 42.7733 159.139 42.7993 159.243 42.8445C159.347 42.8897 159.44 42.9533 159.517 43.0315C159.594 43.1098 159.654 43.2013 159.693 43.3007C159.731 43.4001 159.748 43.5055 159.743 43.611C159.737 43.7164 159.709 43.8198 159.659 43.9152C159.61 44.0106 159.541 44.0962 159.456 44.167C158.504 44.835 157.339 45.1963 156.141 45.1947C155.506 45.188 154.879 45.066 154.296 44.8356C153.714 44.6052 153.187 44.271 152.745 43.8524C152.304 43.4338 151.958 42.9391 151.727 42.3969C151.495 41.8547 151.384 41.2758 151.398 40.6937C151.404 39.5309 151.904 38.4161 152.79 37.5848C153.676 36.7536 154.879 36.2709 156.146 36.2389C156.991 36.2211 157.826 36.4143 158.561 36.798C159.296 37.1818 159.903 37.7415 160.318 38.4175C161.018 39.5479 161.208 41.3 159.366 41.3103H153.766C153.234 41.3103 153.341 41.6494 153.436 41.896L153.447 41.8755Z" fill="#6D6E71"/>
<path fill-rule="evenodd" clip-rule="evenodd" d="M179.912 42.4355V40.3289C179.912 39.7729 179.671 39.2397 179.243 38.8465C178.814 38.4534 178.233 38.2325 177.627 38.2325C177.021 38.2325 176.44 38.4534 176.012 38.8465C175.583 39.2397 175.343 39.7729 175.343 40.3289V42.4252C175.343 42.6882 175.229 42.9405 175.026 43.1264C174.823 43.3124 174.549 43.4169 174.262 43.4169C174.12 43.419 173.978 43.3947 173.846 43.3456C173.715 43.2964 173.595 43.2234 173.495 43.1308C173.394 43.0382 173.315 42.928 173.262 42.8068C173.209 42.6856 173.184 42.5558 173.187 42.4252V40.4779C173.187 37.5903 175.516 36.1927 177.599 36.1927C178.244 36.1862 178.883 36.3153 179.465 36.57C180.047 36.8247 180.558 37.1983 180.959 37.6622C181.364 37.2023 181.876 36.8315 182.457 36.5772C183.039 36.3229 183.675 36.1915 184.319 36.1927C186.94 36.1927 188.894 38.248 188.995 40.6731C189.084 42.826 188.138 46.4278 183.126 48.2262C182.961 48.277 182.785 48.2898 182.613 48.2634C182.441 48.237 182.278 48.1722 182.14 48.0748C182.002 47.9773 181.892 47.8502 181.82 47.7046C181.747 47.559 181.715 47.3993 181.726 47.2396C181.74 47.0163 181.833 46.8031 181.99 46.6325C182.148 46.4619 182.362 46.3431 182.6 46.2942C183.962 45.9773 185.154 45.2193 185.955 44.16C186.757 43.1007 187.114 41.8113 186.962 40.5293C186.755 39.219 185.909 38.2531 184.375 38.2325C184.068 38.2236 183.762 38.2712 183.476 38.3723C183.189 38.4735 182.928 38.6262 182.706 38.8216C182.485 39.0169 182.309 39.2509 182.187 39.5098C182.066 39.7687 182.003 40.0472 182.001 40.3289V42.4355C182.011 42.5679 181.992 42.701 181.944 42.8262C181.896 42.9515 181.82 43.0664 181.722 43.1636C181.623 43.2609 181.504 43.3384 181.371 43.3915C181.239 43.4445 181.095 43.4719 180.951 43.4719C180.806 43.4719 180.663 43.4445 180.53 43.3915C180.398 43.3384 180.278 43.2609 180.18 43.1636C180.081 43.0664 180.006 42.9515 179.958 42.8262C179.91 42.701 179.89 42.5679 179.901 42.4355H179.912Z" fill="#6D6E71"/>
<path fill-rule="evenodd" clip-rule="evenodd" d="M148.241 38.7515C148.601 38.7515 148.953 38.8494 149.252 39.0329C149.551 39.2164 149.784 39.4772 149.922 39.7823C150.06 40.0875 150.096 40.4232 150.026 40.7472C149.955 41.0711 149.782 41.3686 149.528 41.6022C149.273 41.8357 148.949 41.9948 148.596 42.0592C148.243 42.1236 147.877 42.0906 147.544 41.9642C147.212 41.8378 146.928 41.6237 146.728 41.3491C146.528 41.0745 146.421 40.7517 146.421 40.4214C146.422 39.9789 146.615 39.555 146.956 39.2421C147.297 38.9292 147.759 38.7529 148.241 38.7515Z" fill="#B3B2B6"/>
<path d="M91.7172 24.4315H91.2637V58.5743H91.7172V24.4315Z" fill="#6D6E71"/>
</svg>
